<svg xmlns="http://www.w3.org/2000/svg" xmlns:xlink="http://www.w3.org/1999/xlink" width="100%" height="100%" version="1.1" viewBox="0 0 210 580" xml:space="preserve" style="fill-rule:evenodd;clip-rule:evenodd;stroke-linejoin:round;stroke-miterlimit:2"><g><path d="M349,505.21C349,480.258 323.907,460 293,460C262.093,460 237,480.258 237,505.21L237,741.79C237,766.742 262.093,787 293,787C323.907,787 349,766.742 349,741.79L349,505.21Z" style="fill:#2c205b" transform="matrix(0.70692,1.11022e-16,-4.996e-16,0.875639,-163.058,-318.62)"/></g><g><path d="M349,557.473C349,503.676 323.907,460 293,460C262.093,460 237,503.676 237,557.473L237,689.527C237,743.324 262.093,787 293,787C323.907,787 349,743.324 349,689.527L349,557.473Z" style="fill:#154a87" transform="matrix(0.70692,1.66533e-16,-4.16334e-16,0.406137,-109.454,-183.032)"/></g><g><path d="M349,495.376C349,475.852 323.907,460 293,460C262.093,460 237,475.852 237,495.376L237,751.624C237,771.148 262.093,787 293,787C323.907,787 349,771.148 349,751.624L349,495.376Z" style="fill:#2e6af8" transform="matrix(0.70692,0,-3.33067e-16,1.11904,-55.877,-447.655)"/></g><g><path d="M349,584.026C349,515.574 323.907,460 293,460C262.093,460 237,515.574 237,584.026L237,662.974C237,731.426 262.093,787 293,787C323.907,787 349,731.426 349,662.974L349,584.026Z" style="fill:#2e6af8" transform="matrix(0.70692,-5.55112e-17,-2.77556e-16,0.319188,-41.1972,325.008)"/></g><g><path d="M349,505.21C349,480.258 323.907,460 293,460C262.093,460 237,480.258 237,505.21L237,741.79C237,766.742 262.093,787 293,787C323.907,787 349,766.742 349,741.79L349,505.21Z" style="fill:#154a87" transform="matrix(0.70692,1.11022e-16,-4.996e-16,0.875639,-110.809,-250.708)"/></g></svg>